<svg width="48" height="47" viewBox="0 0 48 47" fill="none" xmlns="http://www.w3.org/2000/svg">
<g clip-path="url(#clip0_16_2039)">
<mask id="mask0_16_2039" style="mask-type:luminance" maskUnits="userSpaceOnUse" x="0" y="-1" width="48" height="48">
<path d="M48 -1H0V47H48V-1Z" fill="white"/>
</mask>
<g mask="url(#mask0_16_2039)">
<path d="M0 14.5792C0 8.35769 3.83632 2.74813 9.87831 1.26425C19.9862 -1.2182 35.2427 -3.26324 42.753 4.24707C49.0925 10.5867 48.6236 22.4456 46.8302 32.0683C45.1204 41.2426 36.587 47 27.2548 47H7.5C3.35787 47 0 43.6421 0 39.5V14.5792Z" fill="#3D3D3D"/>
</g>
<path d="M21.272 8.728C21.816 9.016 22.16 9.44 22.304 10C21.984 11.792 21.696 13.576 21.44 15.352C21.184 17.112 20.936 18.592 20.696 19.792C20.456 20.976 20.288 21.864 20.192 22.456C20.112 23.048 20.016 23.64 19.904 24.232L19.76 24.736C19.728 24.912 19.696 25.072 19.664 25.216C19.632 25.376 19.6 25.544 19.568 25.72C19.12 26.232 18.512 26.488 17.744 26.488C16.928 26.488 16.28 26.28 15.8 25.864C15.512 25.64 15.464 25.168 15.656 24.448C15.736 24.16 15.784 23.792 15.8 23.344C15.832 22.88 15.864 22.496 15.896 22.192V22.144C15.416 22.32 14.984 22.552 14.6 22.84C14.216 23.112 13.976 23.288 13.88 23.368C13.784 23.432 13.656 23.488 13.496 23.536C13.336 23.568 13.192 23.592 13.064 23.608C12.76 23.624 12.552 23.672 12.44 23.752C11.512 25.416 10.68 26.344 9.944 26.536C9.48 26.68 9.016 26.712 8.552 26.632C8.088 26.568 7.72 26.296 7.448 25.816C6.936 25.336 7.064 24.024 7.832 21.88C8.248 20.744 8.84 19.384 9.608 17.8C10.392 16.2 11.144 14.808 11.864 13.624C13.416 11.08 15.12 8.936 16.976 7.192C17.28 7.064 17.608 6.92 17.96 6.76C18.312 6.584 18.656 6.488 18.992 6.472C19.344 6.456 19.704 6.496 20.072 6.592C20.44 6.688 20.752 6.832 21.008 7.024C21.6 7.472 21.688 8.04 21.272 8.728ZM16.136 15.04C15.8 16 15.464 16.888 15.128 17.704C14.792 18.504 14.504 19.208 14.264 19.816L16.16 19.744C16.288 18.72 16.432 17.704 16.592 16.696C16.752 15.688 16.904 14.68 17.048 13.672L16.136 15.04ZM15.488 19.84C15.712 19.84 15.936 19.824 16.16 19.792V19.768C15.952 19.784 15.76 19.8 15.584 19.816C15.408 19.832 15.376 19.84 15.488 19.84Z" fill="white"/>
<path d="M24.896 37.208L24.728 21.704C24.728 21.32 24.88 20.992 25.184 20.72C25.504 20.432 25.864 20.232 26.264 20.12C26.664 20.008 27.04 19.992 27.392 20.072C27.744 20.152 27.968 20.36 28.064 20.696C28.368 21.304 28.576 22.144 28.688 23.216C28.896 25.216 29 26.944 29 28.4C29.16 28.656 29.36 28.776 29.6 28.76C30.288 27.08 31.048 25.464 31.88 23.912C32.712 22.36 33.248 21.368 33.488 20.936C33.728 20.488 34.016 20.176 34.352 20C34.688 19.824 35.048 19.712 35.432 19.664C36.264 19.568 37.048 19.712 37.784 20.096C38.344 20.288 38.672 20.616 38.768 21.08C39.136 21.816 38.888 22.664 38.024 23.624C37.016 25.224 36 26.992 34.976 28.928C33.024 32.656 31.784 34.952 31.256 35.816C30.728 36.68 30.344 37.296 30.104 37.664C29.864 38.016 29.592 38.312 29.288 38.552C28.744 38.984 28.088 39.16 27.32 39.08C25.976 39.032 25.192 38.608 24.968 37.808C24.92 37.584 24.896 37.384 24.896 37.208Z" fill="white"/>
</g>
<defs>
<clipPath id="clip0_16_2039">
<rect width="48" height="47" fill="white"/>
</clipPath>
</defs>
</svg>
