<svg width="48" height="47" viewBox="0 0 48 47" fill="none" xmlns="http://www.w3.org/2000/svg">
<g clip-path="url(#clip0_16_2039)">
<mask id="mask0_16_2039" style="mask-type:luminance" maskUnits="userSpaceOnUse" x="0" y="-1" width="48" height="48">
<path d="M48 -1H0V47H48V-1Z" fill="white"/>
</mask>
<g mask="url(#mask0_16_2039)">
<path d="M0 14.5792C0 8.35769 3.83632 2.74813 9.87831 1.26425C19.9862 -1.2182 35.2427 -3.26324 42.753 4.24707C49.0925 10.5867 48.6236 22.4456 46.8302 32.0683C45.1204 41.2426 36.587 47 27.2548 47H7.5C3.35787 47 0 43.6421 0 39.5V14.5792Z" fill="#FE705A"/>
</g>
<path d="M18.6 25L17.7 21.02H11.64L10.62 25H8.28L11.9 11.62C12.0867 10.94 12.28 10.42 12.48 10.06C12.68 9.68667 12.9667 9.42667 13.34 9.28C13.7133 9.13333 14.2333 9.06667 14.9 9.08L17.38 9.14L21.12 25H18.6ZM14.1 11.58L12.18 18.86H17.22L15.48 11.3H14.38C14.22 11.3 14.1267 11.3933 14.1 11.58Z" fill="white"/>
<path d="M26.358 20.4545L30.6761 32.6989H30.8466L35.1648 20.4545H37.0114L31.6705 35H29.8523L24.5114 20.4545H26.358Z" fill="white"/>
</g>
<defs>
<clipPath id="clip0_16_2039">
<rect width="48" height="47" fill="white"/>
</clipPath>
</defs>
</svg>
