<svg width="117" height="90" viewBox="0 0 117 90" fill="none" xmlns="http://www.w3.org/2000/svg">
<path d="M0.0996094 55.6501C0.0996094 56.7013 0.0995943 57.1341 0.161427 56.5776C0.223261 55.9593 0.223261 55.2791 0.161427 54.6608C0.0995943 54.1043 0.0996094 54.599 0.0996094 55.6501Z" fill="black"/>
<path d="M67.0651 0.309269C66.3849 0.371102 65.6429 0.494769 64.9627 0.618435C64.3444 0.803935 63.7879 0.927605 63.1696 0.989438C62.3039 1.1131 61.5001 1.2986 60.6962 1.54593C60.1397 1.73143 59.0268 2.10244 58.2229 2.28794C57.6664 2.41161 57.1099 2.65893 56.6152 2.84443C56.1824 3.09177 55.7496 3.27726 55.3168 3.40093C54.8839 3.5246 54.4511 3.7101 54.0801 3.95743C53.7091 4.20477 53.2762 4.39027 52.9052 4.57577C52.4724 4.69943 52.1014 4.88493 51.7923 5.1941C51.7923 5.25593 51.6067 5.37959 51.3594 5.44143C50.8029 5.56509 49.3189 6.55443 46.6601 8.40942C45.3616 9.33692 44.1249 10.3881 42.9501 11.5011C41.0951 13.2324 39.3638 15.0874 37.818 17.1279C37.447 17.6226 37.0141 18.1172 36.8905 18.3027C36.7668 18.4882 36.4576 18.9211 36.1485 19.3539C35.9011 19.7249 35.6538 20.1577 35.3446 20.4669C35.1591 20.5906 35.0973 20.7761 35.0355 21.0234C34.85 21.3944 34.6645 21.7654 34.4171 22.0746C34.108 22.5074 33.8606 23.0021 33.6133 23.4967C33.4896 23.8059 33.366 24.0532 33.2423 24.0532C32.995 24.4242 32.7476 24.7952 32.6858 25.2281C32.5621 25.6609 32.3766 26.0319 32.1293 26.4029C31.882 26.7739 31.6965 27.2686 31.5728 27.7014C31.3873 28.2579 31.14 28.8762 30.8926 29.3709C30.6453 29.9274 30.4598 30.422 30.3361 30.9785C30.2125 31.4732 30.0888 31.9679 29.8415 32.4007C29.4705 33.5755 29.1613 34.7504 28.9758 35.987C28.914 36.358 28.7903 36.729 28.6666 37.0382C28.1101 38.3367 28.0483 40.81 27.9247 60.473C27.8628 74.6946 27.9246 80.7543 28.0483 81.5581C28.6666 84.6498 31.6965 88.1742 34.4171 88.9781C34.85 89.1017 35.2828 89.2254 35.6538 89.4109C36.334 89.7201 76.34 89.7201 76.711 89.4109C76.8965 89.2254 77.2057 89.1636 77.453 89.1636C79.2462 88.9781 80.9775 88.6689 82.7089 88.2361C83.2653 88.0506 83.8219 87.8651 84.3784 87.7414C84.9967 87.6177 85.5532 87.4323 86.1097 87.1849C86.4807 86.9994 86.9135 86.8139 87.3463 86.6903C89.9433 85.9483 94.7663 83.2894 98.0435 80.8779C98.6 80.4451 99.4038 79.8886 99.8367 79.5794C101.259 78.5901 105.278 74.571 107.442 71.7885C108.988 69.8716 110.286 67.7693 111.461 65.6051C111.647 65.1723 111.832 64.8013 112.08 64.4303C112.327 64.0593 112.512 63.6265 112.698 63.1936C112.883 62.7608 113.069 62.2661 113.316 61.8333C113.564 61.4005 113.687 60.9677 113.873 60.473C113.996 59.9783 114.182 59.4836 114.429 59.0508C114.677 58.3706 114.924 57.6905 115.048 57.0103C115.171 56.392 115.357 55.8355 115.542 55.279C115.728 54.9698 116.47 50.2087 116.47 49.0338C116.408 48.6628 116.532 48.3537 116.655 48.0445C116.903 47.9208 116.903 41.8612 116.655 41.6757C116.47 41.0573 116.408 40.439 116.346 39.8207C116.222 37.9039 115.913 36.0489 115.48 34.1939C115.357 34.0084 115.109 33.019 114.924 32.0915C114.8 31.4114 114.615 30.793 114.367 30.1747C114.182 29.8037 113.996 29.3709 113.873 28.9381C113.749 28.4434 113.502 27.9487 113.316 27.5159C113.069 27.083 112.883 26.6502 112.698 26.1556C112.512 25.5991 112.265 25.0426 111.956 24.5479C111.77 24.1769 111.461 23.6204 111.338 23.3731C111.214 23.1257 111.028 22.6929 110.843 22.5074L109.544 20.4669C108.555 18.9211 107.504 17.4371 106.391 16.0149C104.412 13.6652 99.0946 8.84226 97.2397 7.66743C96.9305 7.48193 96.3122 7.04909 95.8175 6.73993C94.0243 5.5651 92.1693 4.57576 90.1907 3.77193C88.8922 3.1536 87.5937 2.5971 86.1715 2.2261C85.615 2.0406 84.9967 1.85511 84.4402 1.66961C83.5745 1.42227 82.7707 1.23677 81.8432 1.05127C81.0393 0.927609 80.2355 0.80394 79.4935 0.556607C78.3187 0.123775 70.8369 -0.0617303 67.0651 0.309269ZM75.1034 16.8187C75.6599 17.0661 76.2782 17.2516 76.8965 17.3752C77.453 17.4989 77.9477 17.6844 78.4423 17.9317C78.6897 18.1172 78.9989 18.3027 79.308 18.4882C81.1012 19.5394 82.7089 20.9616 83.9455 22.6311C84.131 22.8784 84.3165 23.1876 84.502 23.3731C85.1204 23.8677 86.6043 28.0724 86.6043 29.4945C86.6043 29.8655 86.6662 30.1129 86.7898 30.1129C86.9135 30.1129 86.9754 32.8335 86.9754 37.9039C86.9754 42.1704 86.9135 45.6948 86.7898 45.6948C86.6662 45.6948 86.6043 46.1895 86.4807 46.8078C86.357 48.1063 85.8005 50.2087 85.615 50.3323C85.3677 50.7033 85.1204 51.0743 84.9967 51.4453C84.873 51.8163 84.6875 52.1873 84.4402 52.4347C84.3783 52.4347 84.131 52.7438 83.9455 53.053C82.5852 55.0317 80.7302 56.6393 78.566 57.6905C78.2569 57.8142 78.0095 57.9378 77.7622 58.1233C77.5767 58.3706 75.4125 58.9271 74.0522 59.0508C73.5575 59.0508 73.1247 59.1745 72.6919 59.36C72.5682 59.6073 71.4552 59.6073 71.4552 59.36C71.0224 59.1745 70.5277 59.0508 70.0949 59.0508C68.2399 58.8653 64.7154 57.6287 64.2207 57.0103C63.9734 56.763 63.7261 56.5775 63.4787 56.392C63.1077 56.1447 62.7367 55.8355 62.4276 55.4645C62.2421 55.279 62.0566 55.0935 61.8092 55.0317C61.6856 55.0317 61.5619 54.8462 61.5001 54.6607C61.3764 54.3515 61.1909 54.1042 60.9436 53.9187C60.5726 53.6095 60.3252 53.2385 60.0779 52.8057C59.8924 52.4347 59.6451 52.1255 59.3977 51.7545C59.2741 51.6308 59.2123 51.5072 59.1504 51.3217C59.0268 50.8888 58.8412 50.5178 58.6557 50.1468C57.6046 47.9827 57.5427 47.4262 57.4809 38.8314C57.3572 29.4946 57.5427 27.8869 58.6557 25.4754C60.1397 22.1982 62.3657 19.6631 64.9009 18.3646C65.2719 18.1791 65.5811 17.9936 65.8284 17.7462C66.3231 17.4989 66.8177 17.3134 67.3742 17.1897C68.1781 16.9424 68.9819 16.6951 69.1674 16.6332C70.033 16.4477 74.3614 16.3859 75.1034 16.8187ZM71.0224 21.5799C67.1887 22.0746 64.5917 23.9914 62.984 27.6396L62.4276 28.8762V46.9933L62.984 48.4155C63.9734 50.6415 65.7665 52.4965 67.9307 53.6095L69.4765 54.3515H72.0735C74.3614 54.3515 74.7324 54.2897 75.598 53.9187C76.0927 53.6713 76.8347 53.3622 77.1439 53.1767C78.2569 52.682 80.1737 50.456 80.9775 48.9102L81.7195 47.4262L81.7814 38.8314C81.8432 30.6076 81.7195 27.6396 81.2248 27.6396C80.9775 27.3922 80.8538 27.0831 80.7302 26.7739C79.5553 23.4967 75.0415 21.0852 71.0224 21.5799ZM73.001 31.2877C73.4957 31.2877 74.5469 32.648 74.6705 33.4519C74.7324 33.8847 74.7942 36.8527 74.7324 40.0062L74.6705 45.6948L73.9904 46.375C72.6919 47.7353 70.8987 47.488 70.0949 45.8803L69.6002 44.891V33.39L70.1567 32.4625C70.7132 31.535 71.6407 30.9785 72.3827 31.164C72.5682 31.2259 72.8155 31.2877 73.001 31.2877ZM96.9305 51.6927L97.6725 52.4347L97.5488 53.6713C97.487 54.4133 97.3015 55.0935 97.0542 55.7737C96.8687 56.1447 96.745 56.5157 96.6831 56.8867C96.1266 58.3088 95.4465 59.731 94.6426 61.0913C94.4571 61.2768 94.3335 61.5241 94.148 61.7715C93.2205 63.5646 89.7578 67.0273 87.4082 68.5731C85.5532 69.8098 83.5127 70.861 81.4104 71.603C81.0394 71.7266 80.6065 71.8503 80.2973 72.0976C80.1737 72.2831 77.3294 72.8396 75.7217 73.0251C75.2889 73.0251 74.7942 73.087 74.3614 73.3343C74.3614 73.5198 70.033 73.5816 69.9094 73.3343C69.4765 73.1488 68.9819 73.087 68.549 73.0251C67.0032 72.9015 64.0971 72.345 63.7879 72.0976C63.3551 71.8503 62.9222 71.7266 62.4276 71.5411C60.7581 70.861 59.1504 70.119 57.6046 69.1915C55.6259 68.0785 52.1014 64.7395 50.3701 62.3898C49.9991 61.8951 48.6388 59.4218 48.5151 59.1126C48.4533 58.8653 48.3296 58.618 48.1441 58.4325C47.8349 57.9378 47.6494 57.3813 47.4639 56.8248C47.3403 56.2683 47.0929 55.7736 46.8456 55.279C45.9181 54.2897 47.2784 51.8782 48.8861 51.7545C49.8754 51.6927 51.0502 52.1873 51.0502 52.7438C51.0502 52.9293 51.1739 53.1148 51.2976 53.2385C51.4831 53.5477 51.6686 53.8568 51.6686 54.2278C52.1632 57.4432 56.1206 62.6371 59.7687 64.925C64.9009 68.1403 73.8667 69.4388 78.195 67.5838C78.6897 67.3983 79.1225 67.2128 79.6172 67.0891C81.1012 66.5945 82.4615 65.9761 83.76 65.1105L84.6875 64.554C85.244 64.554 89.0777 60.7203 89.8197 59.4218C90.0052 59.1126 90.2525 58.8035 90.3143 58.8035C90.5617 58.5562 90.7472 58.1852 90.8708 57.876C90.9945 57.505 91.18 57.134 91.4273 56.8248C91.6746 56.3301 91.922 55.8355 92.0456 55.3408C92.2311 54.7225 92.4166 54.166 92.664 53.6095C92.7876 53.424 92.8495 53.1767 92.8495 52.9293C92.9113 51.0743 95.5083 50.2705 96.9305 51.6927Z" fill="#02BF6F"/>
</svg>
