<svg width="109" height="118" viewBox="0 0 109 118" fill="none" xmlns="http://www.w3.org/2000/svg">
<path d="M64.4557 78.7727C62.1557 79.6027 56.8957 80.8427 51.1757 77.8327C50.8757 77.6527 50.5857 78.0727 50.8257 78.3027C52.6557 80.2527 55.9057 83.7327 57.9057 85.3827C58.3157 85.7327 58.9657 85.6827 59.3257 85.2627L64.8157 79.1827C64.9857 79.0127 64.7557 78.6527 64.4557 78.7727Z" fill="white"/>
<path d="M85.8618 53.5496C82.9118 47.1696 78.5418 41.2096 71.8718 40.4996C70.6918 40.3796 69.4518 40.6196 68.4518 41.2696L61.1918 45.5796C59.3618 46.6396 57.1218 46.5196 55.4618 45.2296L49.1418 40.3296C47.0118 38.6796 44.5918 37.4996 42.0018 36.9096C31.2018 34.3696 23.8818 40.0396 18.3318 50.6696C13.0818 60.7596 16.0318 75.4096 29.0218 78.8296C42.8318 82.4896 51.9318 67.1996 55.5918 62.1196C56.3018 61.1196 57.7218 61.1196 58.4218 62.1196C64.0918 69.7896 71.6418 77.9996 79.7918 76.3496C90.4118 74.2096 89.1718 60.6896 85.8618 53.5496ZM46.0118 61.6396C43.3518 63.4096 39.9918 62.9996 37.9818 59.9896C35.9118 56.9796 36.8018 53.6696 39.4618 51.8996C42.1218 50.1296 45.4818 50.5396 47.4918 53.5496C49.5518 56.5596 48.6718 59.8696 46.0118 61.6396ZM74.1718 62.1696C71.5118 63.9396 68.1518 63.5296 66.1418 60.5196C64.1318 57.5096 65.0218 54.1996 67.6718 52.4296C70.3318 50.6596 73.6918 51.0696 75.7018 54.0796C77.7118 57.0896 76.8318 60.3996 74.1718 62.1696Z" fill="white"/>
<path d="M58.1927 66.0691C57.6627 65.4791 56.6627 65.4791 56.1227 66.1291L50.3327 72.9791C50.0327 73.2791 50.0927 73.809 50.4527 74.039C51.8127 74.979 55.0527 77.1091 58.2427 77.1091C61.1927 77.1091 63.8527 75.9891 65.1527 75.3391C65.5627 75.0991 65.6827 74.5691 65.3927 74.2191L58.1927 66.0691Z" fill="white"/>
<path d="M49.0303 19.9551C38.6039 19.8832 27.0035 26.3068 18.524 35.8401C12.3803 42.7658 4.63197 61.8849 0.828187 71.8737C-0.780506 76.1182 -0.0169577 80.9095 2.83261 84.4573C9.5167 92.6948 23.4402 106.112 50.4041 106.293C75.0878 106.474 87.6709 95.4685 93.5834 87.3988C96.8587 82.9158 97.8584 77.1735 96.3104 71.8536C93.6781 62.8445 88.1815 47.2501 79.1494 36.4681C68.8137 24.2056 59.4436 20.0237 49.0303 19.9551Z" fill="#FF4C46"/>
<path d="M57.8273 44.9972C73.0996 34.37 81.39 43.5904 86.0296 53.8351C89.3897 61.2176 90.5762 75.0216 79.6801 77.1368C71.3346 78.7724 63.6242 70.3008 57.9087 62.406C57.318 61.5987 56.1953 61.4239 55.389 62.0009C55.2373 62.1136 55.1085 62.2461 54.9873 62.3944C51.2289 67.592 41.8155 83.1585 27.7432 79.3234C14.4466 75.6845 11.5236 60.7135 17.0621 50.3826C25.2524 34.7902 37.2021 29.7056 57.8273 44.9972Z" fill="white"/>
<path d="M49.6459 78.524C51.3949 80.4497 55.0414 84.3759 57.2295 86.2476C57.6438 86.6128 58.2867 86.5709 58.6623 86.1708L64.5401 79.6986C64.6283 79.6256 64.6347 79.4901 64.5596 79.4013C64.4964 79.3295 64.4046 79.3063 64.3116 79.3525C59.5758 81.146 54.2916 80.7155 49.8933 78.1892C49.7809 78.1468 49.6583 78.1994 49.6159 78.3119C49.5987 78.3889 49.6062 78.4605 49.6459 78.524Z" fill="white"/>
<path d="M55.5655 66.4645L49.5639 73.4261C49.2946 73.7276 49.3124 74.1993 49.6292 74.4724C49.6521 74.4922 49.6619 74.5086 49.6881 74.5152C51.0446 75.5024 54.3666 77.661 57.6143 77.6878C60.0866 77.6276 62.5054 77.0169 64.6949 75.8972C65.0573 75.7146 65.2012 75.2559 65.0147 74.9088C64.9854 74.8596 64.9576 74.813 64.9151 74.7604L57.6202 66.4381C57.0867 65.8916 56.215 65.864 55.6554 66.3942C55.6312 66.4253 55.5984 66.4449 55.5655 66.4645Z" fill="white"/>
<path d="M75.6408 54.3218C77.405 57.0603 76.6168 60.7174 73.8755 62.4926C71.137 64.2567 67.4799 63.4685 65.7048 60.7272C63.9504 58.0052 64.7123 54.3972 67.4038 52.6072C69.9676 50.7709 73.5378 51.3605 75.3741 53.9243C75.4617 54.0557 75.551 54.1899 75.6408 54.3218Z" fill="#FF4C46"/>
<path d="M55.0051 44.9879C56.6859 46.3198 59.0143 46.4975 60.8802 45.4168L98.0133 23.7838C98.4978 23.4949 98.6576 22.8636 98.3556 22.3757C98.1631 22.0527 97.8121 21.8685 97.4366 21.8828L57.2354 25.2141L11.3795 7.77827C10.7385 7.54633 10.0494 7.88106 9.81967 8.52263C9.6434 8.99875 9.79324 9.54575 10.1935 9.86555L55.0051 44.9879Z" fill="#FF4C46"/>
<path d="M38.624 51.0472C35.5465 52.0933 34.0209 55.357 34.9376 58.4041C35.9837 61.4816 39.2473 63.0071 42.2944 62.0905C45.3588 61.041 46.8703 57.732 45.9677 54.7303C45.9743 54.7041 45.9581 54.6581 45.9238 54.5821C44.984 51.6268 41.9615 50.0669 39.0814 50.8747C38.9503 50.8416 38.7855 50.951 38.624 51.0472Z" fill="#FF4C46"/>
</svg>
