<?xml version="1.0" encoding="UTF-8"?>
<svg xmlns="http://www.w3.org/2000/svg" xmlns:xlink="http://www.w3.org/1999/xlink" width="2000px" height="2000px" viewBox="0 0 2000 2000" version="1.1">
<g id="surface1">
<path style=" stroke:none;fill-rule:nonzero;fill:rgb(100%,47.843137%,34.901961%);fill-opacity:1;" d="M 1501.796875 677.03125 L 1501.796875 442.109375 C 1565.15625 412.5 1605.78125 349.0625 1606.09375 279.140625 L 1606.09375 273.75 C 1606.09375 173.828125 1525.15625 92.8125 1425.234375 92.8125 L 1419.84375 92.8125 C 1320 92.8125 1238.984375 173.828125 1238.984375 273.75 L 1238.984375 279.140625 C 1239.296875 349.0625 1279.921875 412.5 1343.28125 442.109375 L 1343.28125 677.03125 C 1254.0625 690.703125 1170.078125 727.65625 1099.765625 784.21875 L 455.546875 282.5 C 460.15625 265.9375 462.578125 248.90625 462.8125 231.71875 C 463.046875 119.21875 371.953125 27.734375 259.375 27.578125 C 146.796875 27.34375 55.46875 118.515625 55.234375 231.015625 C 55.078125 343.59375 146.25 435 258.75 435.15625 C 294.0625 435 328.671875 425.546875 359.140625 407.8125 L 993.4375 901.40625 C 876.875 1077.578125 879.921875 1307.1875 1001.328125 1480.15625 L 808.359375 1673.125 C 792.8125 1668.125 776.5625 1665.46875 760.15625 1665.234375 C 667.8125 1665.3125 592.890625 1740.3125 592.96875 1832.65625 C 592.96875 1925.078125 667.890625 1999.921875 760.234375 2000 C 852.65625 2000 927.578125 1925.15625 927.65625 1832.734375 C 927.421875 1816.40625 924.765625 1800.15625 919.765625 1784.53125 L 1110.625 1593.59375 C 1281.171875 1724.921875 1515.390625 1736.25 1697.8125 1621.953125 C 1880.15625 1507.734375 1972.265625 1292.03125 1928.515625 1081.328125 C 1884.84375 870.625 1714.609375 709.296875 1501.796875 677.03125 M 1422.734375 1449.53125 C 1326.71875 1452.109375 1236.875 1402.34375 1188.125 1319.609375 C 1139.375 1236.875 1139.375 1134.21875 1188.125 1051.484375 C 1236.875 968.75 1326.71875 919.0625 1422.734375 921.640625 C 1564.84375 926.5625 1677.421875 1043.203125 1677.5 1185.390625 C 1677.578125 1327.5 1565.078125 1444.21875 1422.96875 1449.375 "/>
</g>
</svg>
