<svg width="28" height="27" viewBox="0 0 28 27" fill="none" xmlns="http://www.w3.org/2000/svg">
<path fill-rule="evenodd" clip-rule="evenodd" d="M19.9026 22.5952C19.1011 23.3818 18.1623 23.9966 17.085 24.4443C16.0077 24.8884 14.8363 25.111 13.5735 25.111C12.3094 25.111 11.1393 24.8884 10.0632 24.4443C8.98467 23.9966 8.04464 23.3818 7.24315 22.5952C6.44165 21.811 5.81332 20.8833 5.36062 19.8134C4.92277 18.7806 4.69766 17.6637 4.68158 16.4652H6.81272C6.83498 16.8338 6.91414 17.1789 7.05143 17.5029C7.21594 17.8925 7.44476 18.229 7.73419 18.5135C8.02485 18.7992 8.36747 19.0231 8.75832 19.1826C9.14917 19.3459 9.57466 19.4275 10.0335 19.4275C10.4924 19.4275 10.9154 19.3459 11.3075 19.1826C11.6984 19.0231 12.041 18.7992 12.3317 18.5135C12.6223 18.229 12.8511 17.8925 13.0144 17.5029C13.1245 17.2469 13.1962 16.9748 13.2321 16.6903H13.9149C13.9507 16.9748 14.0225 17.2469 14.1325 17.5029C14.2983 17.8925 14.5246 18.229 14.8165 18.5135C15.106 18.7992 15.4486 19.0231 15.8394 19.1826C16.2303 19.3459 16.6558 19.4275 17.1134 19.4275C17.5735 19.4275 17.9978 19.3459 18.3886 19.1826C18.7795 19.0231 19.1221 18.7992 19.4128 18.5135C19.7034 18.229 19.9323 17.8925 20.0968 17.5029C20.2341 17.1789 20.3132 16.8338 20.3367 16.4652H22.4629C22.4505 17.6637 22.2242 18.7806 21.7863 19.8134C21.3324 20.8833 20.7041 21.811 19.9026 22.5952ZM11.9507 16.2413C11.9507 16.5109 11.9012 16.7608 11.8047 16.9921C11.707 17.2209 11.5722 17.4201 11.3978 17.5907C11.2234 17.7614 11.0218 17.8938 10.7905 17.989C10.5567 18.0855 10.3057 18.1337 10.0335 18.1337C9.76019 18.1337 9.50787 18.0855 9.27534 17.989C9.04404 17.8938 8.84119 17.7614 8.66803 17.5907C8.49363 17.4201 8.35881 17.2209 8.26233 16.9921C8.16462 16.7608 8.11515 16.5109 8.11515 16.2413C8.11515 15.9741 8.16462 15.723 8.26233 15.4918C8.35881 15.2617 8.49363 15.0626 8.66803 14.8919C8.84119 14.7236 9.04404 14.5901 9.27534 14.4948C9.50787 14.3983 9.76019 14.3501 10.0335 14.3501C10.3057 14.3501 10.5567 14.3983 10.7905 14.4948C11.0218 14.5901 11.2234 14.7236 11.3978 14.8919C11.5722 15.0626 11.707 15.2617 11.8047 15.4918C11.9012 15.723 11.9507 15.9741 11.9507 16.2413ZM19.0318 16.2413C19.0318 16.5109 18.9836 16.7608 18.8846 16.9921C18.7882 17.2209 18.6521 17.4201 18.4802 17.5907C18.307 17.7614 18.1029 17.8938 17.8704 17.989C17.6391 18.0855 17.3868 18.1337 17.1134 18.1337C16.8413 18.1337 16.589 18.0855 16.3577 17.989C16.1239 17.8938 15.9211 17.7614 15.7491 17.5907C15.576 17.4201 15.4412 17.2209 15.3422 16.9921C15.2445 16.7608 15.1963 16.5109 15.1963 16.2413C15.1963 15.9741 15.2445 15.723 15.3422 15.4918C15.4412 15.2617 15.576 15.0626 15.7491 14.8919C15.9211 14.7236 16.1239 14.5901 16.3577 14.4948C16.589 14.3983 16.8413 14.3501 17.1134 14.3501C17.3868 14.3501 17.6391 14.3983 17.8704 14.4948C18.1029 14.5901 18.307 14.7236 18.4802 14.8919C18.6521 15.0626 18.7882 15.2617 18.8846 15.4918C18.9836 15.723 19.0318 15.9741 19.0318 16.2413ZM5.47318 12.6308C6.98588 12.1324 8.99209 11.4966 8.99209 11.4966C13.4053 10.0927 13.9965 8.43284 13.9965 8.43284C13.9965 8.43284 14.9254 10.0927 18.1289 11.1874C18.1289 11.1874 19.8989 11.77 21.5451 12.3649C21.628 12.5282 21.7134 12.6914 21.7863 12.8646C22.0758 13.5474 22.2724 14.2672 22.3763 15.0205H20.1116L20.0968 14.9809C19.9323 14.5913 19.7034 14.2561 19.4128 13.9704C19.1221 13.6847 18.7795 13.4608 18.3886 13.2988C17.9978 13.138 17.5735 13.0576 17.1134 13.0576C16.6558 13.0576 16.2303 13.138 15.8394 13.2988C15.4486 13.4608 15.106 13.6847 14.8165 13.9704C14.5246 14.2561 14.2983 14.5913 14.1325 14.9809C14.0806 15.1034 14.0373 15.2283 14.0014 15.3557H13.1455C13.1109 15.2283 13.0676 15.1034 13.0144 14.9809C12.8511 14.5913 12.6223 14.2561 12.3317 13.9704C12.041 13.6847 11.6984 13.4608 11.3075 13.2988C10.9154 13.138 10.4924 13.0576 10.0335 13.0576C9.57466 13.0576 9.14917 13.138 8.75832 13.2988C8.36747 13.4608 8.02485 13.6847 7.73419 13.9704C7.44476 14.2561 7.21594 14.5913 7.05143 14.9809C7.04525 14.9933 7.04154 15.0069 7.03535 15.0205H4.77187C4.87577 14.2672 5.07119 13.5474 5.36062 12.8646C5.39525 12.7842 5.43731 12.71 5.47318 12.6308ZM26.1092 8.30792C25.4153 6.67647 24.4592 5.26147 23.2335 4.06293C22.0102 2.86191 20.5767 1.92311 18.9329 1.24406C17.2878 0.563776 15.5018 0.223633 13.5735 0.223633C11.6452 0.223633 9.85914 0.563776 8.2141 1.24406C6.57029 1.92311 5.13551 2.86191 3.91224 4.06293C2.68897 5.26147 1.73039 6.67647 1.03898 8.30792C0.345089 9.94061 0 11.7094 0 13.6117C0 15.5165 0.345089 17.2828 1.03898 18.9154C1.73039 20.5481 2.68897 21.9619 3.91224 23.1617C5.13551 24.3615 6.57029 25.3003 8.2141 25.9805C9.85914 26.6596 11.6452 26.9997 13.5735 26.9997C15.5018 26.9997 17.2878 26.6596 18.9329 25.9805C20.5767 25.3003 22.0102 24.3615 23.2335 23.1617C24.4592 21.9619 25.4153 20.5481 26.1092 18.9154C26.7994 17.2828 27.1457 15.5165 27.1457 13.6117C27.1457 11.7094 26.7994 9.94061 26.1092 8.30792Z" fill="#EE6513"/>
</svg>
